<svg xmlns="http://www.w3.org/2000/svg" version="1.1" xmlns:xlink="http://www.w3.org/1999/xlink" xmlns:svgjs="http://svgjs.dev/svgjs" width="2000" height="1500" viewBox="0 0 2000 1500"><rect width="2000" height="1500" fill="#ea3c12"></rect><g transform="matrix(0.75,0,0,0.75,249.090909090909,370.96735588176625)"><svg viewBox="0 0 396 200" data-background-color="#ea3c12" preserveAspectRatio="xMidYMid meet" height="1010" width="2000" xmlns="http://www.w3.org/2000/svg" xmlns:xlink="http://www.w3.org/1999/xlink"><g id="tight-bounds" transform="matrix(1,0,0,1,0.2400000000000091,0.07462550976467242)"><svg viewBox="0 0 395.52 199.85074898047066" height="199.85074898047066" width="395.52"><g><svg viewBox="0 0 696.8357787857315 352.1014166330856" height="199.85074898047066" width="395.52"><g><svg viewBox="0 0 395.52 352.1014166330856" height="352.1014166330856" width="395.52"><g id="textblocktransform"><svg viewBox="0 0 395.52 352.1014166330856" height="352.1014166330856" width="395.52" id="textblock"><g><svg viewBox="0 0 395.52 240.95807615230464" height="240.95807615230464" width="395.52"><g transform="matrix(1,0,0,1,0,0)"><svg width="395.52" viewBox="2.05 -35 74.84 45.6" height="240.95807615230464" data-palette-color="#ffffff"><path d="M14.55 0.6L14.55 0.6Q10.9 0.6 8.08-1.07 5.25-2.75 3.65-5.7 2.05-8.65 2.05-12.5L2.05-12.5Q2.05-16.35 3.63-19.3 5.2-22.25 8.03-23.93 10.85-25.6 14.45-25.6L14.45-25.6Q18.15-25.6 20.98-23.93 23.8-22.25 25.38-19.3 26.95-16.35 26.95-12.5L26.95-12.5Q26.95-8.65 25.38-5.7 23.8-2.75 21-1.07 18.2 0.6 14.55 0.6ZM14.55-3.1L14.55-3.1Q17.05-3.1 18.9-4.3 20.75-5.5 21.83-7.6 22.9-9.7 22.9-12.5L22.9-12.5Q22.9-15.3 21.83-17.4 20.75-19.5 18.85-20.7 16.95-21.9 14.45-21.9L14.45-21.9Q12-21.9 10.13-20.7 8.25-19.5 7.18-17.4 6.1-15.3 6.1-12.5L6.1-12.5Q6.1-9.75 7.18-7.63 8.25-5.5 10.18-4.3 12.1-3.1 14.55-3.1ZM36.5 0L32.5 0 32.5-35 36.5-35 36.5 0ZM47.5 0L43.5 0 43.5-35 47.5-35 47.5 0ZM56.74 10.6L56.74 10.6Q55.79 10.6 54.54 10.23 53.29 9.85 51.89 9.25L51.89 9.25 53.39 5.9Q54.54 6.4 55.42 6.65 56.29 6.9 56.79 6.9L56.79 6.9Q58.14 6.9 59.02 6.18 59.89 5.45 60.49 4.1L60.49 4.1 63.34-2.7 72.59-25 76.89-25 64.89 3.5Q63.94 5.7 62.92 7.3 61.89 8.9 60.44 9.75 58.99 10.6 56.74 10.6ZM66.19 0L62.24 0 51.44-25 55.69-25 64.99-2.75 66.19 0Z" opacity="1" transform="matrix(1,0,0,1,0,0)" fill="#ffffff" class="wordmark-text-0" data-fill-palette-color="primary" id="text-0"></path></svg></g></svg></g><g transform="matrix(1,0,0,1,163.310208,297.8424949380361)"><svg viewBox="0 0 232.209792 54.258921695049516" height="54.258921695049516" width="232.209792"><g transform="matrix(1,0,0,1,0,0)"><svg width="232.209792" viewBox="1.25 -34.95 151.49 35.400000000000006" height="54.258921695049516" data-palette-color="#ffffff"><path d="M11.8 0.45L11.8 0.45Q8.3 0.45 5.95-1.05 3.6-2.55 2.43-5.35 1.25-8.15 1.25-12L1.25-12Q1.25-14.7 2.02-17.07 2.8-19.45 4.28-21.28 5.75-23.1 7.88-24.15 10-25.2 12.65-25.2L12.65-25.2Q16.25-25.2 18.65-23.73 21.05-22.25 22.23-19.55 23.4-16.85 23.4-13.15L23.4-13.15Q23.4-10.25 22.68-7.78 21.95-5.3 20.5-3.45 19.05-1.6 16.88-0.58 14.7 0.45 11.8 0.45ZM12.75-2.45L12.75-2.45Q15.15-2.45 16.5-3.63 17.85-4.8 18.4-7 18.95-9.2 18.95-12.25L18.95-12.25Q18.95-15.75 18.35-17.98 17.75-20.2 16.35-21.25 14.95-22.3 12.4-22.3L12.4-22.3Q9.6-22.3 8.15-21.18 6.7-20.05 6.23-17.82 5.75-15.6 5.75-12.25L5.75-12.25Q5.75-9.15 6.35-6.95 6.95-4.75 8.47-3.6 10-2.45 12.75-2.45ZM37.8 0L25.8 0 25.8-2.05 29.8-2.75 29.8-31.1 25.8-31.8 25.8-33.85 32.75-34.95 33.9-34.5 33.9-2.75 37.8-2.05 37.8 0ZM47.85 0.35L47.85 0.35Q45.3 0.35 43.77-0.5 42.25-1.35 41.57-2.78 40.9-4.2 40.9-5.85L40.9-5.85Q40.9-7.95 41.87-9.5 42.85-11.05 44.85-12.05 46.85-13.05 49.85-13.4L49.85-13.4 54.35-14.05 54.35-17.8Q54.35-19.25 53.77-20.2 53.2-21.15 52.12-21.58 51.05-22 49.45-22L49.45-22Q48.2-22 47.35-21.83 46.5-21.65 46.35-21.6L46.35-21.6 45.6-17Q45.55-16.95 45.2-16.8 44.85-16.65 44-16.65L44-16.65Q43.15-16.65 42.42-17.28 41.7-17.9 41.7-18.95L41.7-18.95Q41.7-20.5 42.87-21.7 44.05-22.9 45.75-23.68 47.45-24.45 49.15-24.83 50.85-25.2 51.9-25.2L51.9-25.2Q54.05-25.2 55.5-24.43 56.95-23.65 57.7-22.35 58.45-21.05 58.45-19.45L58.45-19.45 58.45-3.4 62-2.7 62-0.8Q61.85-0.75 61.22-0.5 60.6-0.25 59.57-0.03 58.55 0.2 57.2 0.2L57.2 0.2Q55.8 0.2 55.27-0.55 54.75-1.3 54.65-2.1L54.65-2.1 54.45-2.1Q53.7-1.5 52.67-0.95 51.65-0.4 50.45-0.03 49.25 0.35 47.85 0.35ZM49.85-2.8L49.85-2.8Q51.75-2.8 53.05-3.28 54.35-3.75 54.35-3.75L54.35-3.75 54.35-11.65Q51.25-11.45 49.25-10.85 47.25-10.25 46.27-9.22 45.3-8.2 45.3-6.6L45.3-6.6Q45.3-2.8 49.85-2.8ZM76.24 0L64.29 0 64.29-2.05 68.29-2.75 68.29-20.55 64.29-21.25 64.29-23.3 71.64-24.7 72.09-22.75 72.29-22.75Q74.34-23.8 76.57-24.5 78.79-25.2 80.24-25.2L80.24-25.2Q83.44-25.2 85.12-23.43 86.79-21.65 86.79-18.35L86.79-18.35 86.79-2.75 90.79-2.05 90.79 0 78.79 0 78.79-2.05 82.69-2.75 82.69-17.65Q82.69-19.85 81.54-20.78 80.39-21.7 77.44-21.7L77.44-21.7Q76.19-21.7 74.72-21.53 73.24-21.35 72.39-21.1L72.39-21.1 72.39-2.75 76.24-2.05 76.24 0ZM105.14 0L93.09 0 93.09-2.05 97.14-2.75 97.14-20.55 93.14-21.25 93.14-23.3 100.04-24.7 101.24-24.25 101.24-2.75 105.14-2.05 105.14 0ZM98.64-28.4L98.64-28.4Q97.39-28.4 96.62-29.28 95.84-30.15 95.84-31.5L95.84-31.5Q95.84-32.8 96.69-33.8 97.54-34.8 98.89-34.8L98.89-34.8Q100.14-34.8 100.92-34.02 101.69-33.25 101.69-31.8L101.69-31.8Q101.69-30.45 100.89-29.43 100.09-28.4 98.64-28.4ZM119.29 0L107.29 0 107.29-2.05 111.29-2.75 111.29-31.1 107.29-31.8 107.29-33.85 114.24-34.95 115.39-34.5 115.39-14.75 118.09-14.75 123.24-21.35 123.24-22.05 120.54-22.7 120.54-24.7 130.14-24.7 130.14-22.65 127.09-21.85 121.34-14.5 128.04-2.95 132.09-2.05 132.09 0 123.99 0 123.99-0.9Q123.99-1.65 123.69-2.15L123.69-2.15 118.04-12.1 115.39-12.1 115.39-2.75 119.29-2.05 119.29 0ZM144.14 0.45L144.14 0.45Q140.44 0.45 138.03-1.13 135.64-2.7 134.49-5.45 133.34-8.2 133.34-11.65L133.34-11.65Q133.34-15.75 134.76-18.8 136.19-21.85 138.71-23.53 141.24-25.2 144.53-25.2L144.53-25.2Q146.74-25.2 148.28-24.45 149.84-23.7 150.81-22.4 151.79-21.1 152.26-19.48 152.74-17.85 152.74-16.1L152.74-16.1Q152.74-13.4 152.24-12.53 151.74-11.65 150.34-11.65L150.34-11.65 137.78-11.65Q137.78-9.3 138.53-7.35 139.28-5.4 141.01-4.23 142.74-3.05 145.64-3.05L145.64-3.05Q148.39-3.05 149.91-3.6 151.44-4.15 151.64-4.25L151.64-4.25 152.34-2.85Q152.19-2.7 151.16-1.9 150.14-1.1 148.36-0.33 146.59 0.45 144.14 0.45ZM137.84-13.95L137.84-13.95 148.53-14.35Q148.69-15.25 148.69-16.35L148.69-16.35Q148.69-19.2 147.69-20.75 146.69-22.3 143.84-22.3L143.84-22.3Q141.78-22.3 140.46-21.33 139.14-20.35 138.51-18.48 137.89-16.6 137.84-13.95Z" opacity="1" transform="matrix(1,0,0,1,0,0)" fill="#ffffff" class="slogan-text-1" data-fill-palette-color="secondary" id="text-1"></path></svg></g></svg></g></svg></g></svg></g><g transform="matrix(1,0,0,1,452.4044187857314,54.29172635432556)"><svg viewBox="0 0 244.43135999999998 243.51796392443447" height="243.51796392443447" width="244.43135999999998"><g><svg xmlns="http://www.w3.org/2000/svg" xmlns:xlink="http://www.w3.org/1999/xlink" version="1.1" x="0" y="0" viewBox="4.999605131277001 5.0004452469459615 90.00016905388014 89.66385459237223" enable-background="new 0 0 100 100" xml:space="preserve" height="243.51796392443447" width="244.43135999999998" class="icon-icon-0" data-fill-palette-color="accent" id="icon-0"><path fill-rule="evenodd" clip-rule="evenodd" d="M61.609 94.663C55.402 94.719 49.743 92.968 45.016 88.934 42.68 86.94 41.242 86.824 38.944 89.133 33.082 95.022 29.714 95.023 24.939 88.165 21.983 83.921 20.251 78.667 18.74 73.635 17.881 70.763 16.962 69.532 13.914 69.463 5.481 69.271 4.469 67.978 5.189 59.621 5.693 53.801 7.459 48.469 11.443 44.118 13.164 42.243 13.226 41.067 11.356 39.181 4.316 32.071 4.368 29.68 12.795 24.067 16.607 21.526 21.292 20.04 25.789 18.876 28.784 18.101 30.244 17.619 30.003 13.98 29.52 6.688 31.482 4.909 38.723 5.004 45.062 5.086 50.891 6.836 55.619 11.198 57.735 13.15 59.175 13.039 60.87 10.845 61.7 9.768 62.908 8.992 63.888 8.022 66.455 5.477 68.814 5.646 71.486 8.073 77.04 13.122 80.947 18.976 81.205 26.695 81.304 29.698 82.948 30.087 85.413 30.168 94.537 30.465 96.157 32.049 94.342 41.156 93.358 46.083 90.896 50.82 88.491 55.315 87.307 57.525 86.533 58.555 88.794 60.586 95.773 66.862 95.85 69.311 88.22 74.754 84.101 77.693 79.075 79.679 74.17 81.089 71.079 81.977 69.92 82.609 70.054 86.055 70.334 93.372 68.827 94.634 61.609 94.663M61.028 48.901C61.11 44.163 55.055 39.116 49.277 39.103 43.929 39.093 38.873 44.857 38.937 50.895 38.983 55.345 45.295 60.477 50.897 60.623 55.504 60.743 60.933 54.458 61.028 48.901" fill="#ffffff" data-fill-palette-color="accent"></path></svg></g></svg></g></svg></g><defs></defs></svg><rect width="395.52" height="199.85074898047066" fill="none" stroke="none" visibility="hidden"></rect></g></svg></g></svg>